HIERARCHY
ROOT Hips
{
    OFFSET 0.000000 0.000000 0.000000
    CHANNELS 6 Xposition Yposition Zposition Zrotation Xrotation Yrotation
        JOINT Chest
        {
            OFFSET -0.000000 31.804140 -0.000000
            CHANNELS 3 Zrotation Xrotation Yrotation
            JOINT Neck
            {
                OFFSET -0.000000 23.903318 0.000000
                CHANNELS 3 Zrotation Xrotation Yrotation
                JOINT Head
                {
                    OFFSET -0.000000 10.511110 0.000000
                    CHANNELS 3 Zrotation Xrotation Yrotation
                    End Site
                    {
                        OFFSET -0.000000 16.244448 0.000000
                    }
                }
            }
            JOINT LeftCollar
            {
                OFFSET -0.000000 23.903318 0.000000
                CHANNELS 3 Zrotation Xrotation Yrotation
                JOINT LeftShoulder
                {
                    OFFSET 20.500000 -0.000000 0.000000
                    CHANNELS 3 Zrotation Xrotation Yrotation
                    JOINT LeftElbow
                    {
                        OFFSET 20.922438 0.000000 0.000000
                        CHANNELS 3 Zrotation Xrotation Yrotation
                        JOINT LeftWrist
                        {
                            OFFSET 26.373112 0.000000 0.000000
                            CHANNELS 3 Zrotation Xrotation Yrotation
                            End Site
                            {
                                OFFSET 0.000000 -14.333333 0.000000
                            }
                        }
                    }
                }
            }
            JOINT RightCollar
            {
                OFFSET -0.000000 23.903318 0.000000
                CHANNELS 3 Zrotation Xrotation Yrotation
                JOINT RightShoulder
                {
                    OFFSET -20.500000 0.000000 0.000000
                    CHANNELS 3 Zrotation Xrotation Yrotation
                    JOINT RightElbow
                    {
                        OFFSET -20.922438 0.000000 0.000000
                        CHANNELS 3 Zrotation Xrotation Yrotation
                        JOINT RightWrist
                        {
                            OFFSET -26.373112 0.000000 0.000000
                            CHANNELS 3 Zrotation Xrotation Yrotation
                            End Site
                            {
                                OFFSET -0.000000 -14.333333 0.000000
                            }
                        }
                    }
                }
            }
        }
    JOINT LeftHip
    {
        OFFSET 11.466667 0.000000 0.000000
        CHANNELS 3 Zrotation Xrotation Yrotation
        JOINT LeftKnee
        {
            OFFSET -0.000000 -37.458855 0.000000
            CHANNELS 3 Zrotation Xrotation Yrotation
            JOINT LeftAnkle
            {
                OFFSET -0.000000 -39.235966 0.000000
                CHANNELS 3 Zrotation Xrotation Yrotation
                End Site
                {
                    OFFSET -0.000000 -4.777778 16.244448
                }
            }
        }
    }
    JOINT RightHip
    {
        OFFSET -11.466667 0.000000 0.000000
        CHANNELS 3 Zrotation Xrotation Yrotation
        JOINT RightKnee
        {
            OFFSET -0.000000 -37.458855 0.000000
            CHANNELS 3 Zrotation Xrotation Yrotation
            JOINT RightAnkle
            {
                OFFSET -0.000000 -39.235966 0.000000
                CHANNELS 3 Zrotation Xrotation Yrotation
                End Site
                {
                    OFFSET -0.000000 -4.777778 16.244448
                }
            }
        }
    }
}
MOTION
Frames:    6
Frame Time:    0.010000
104.863846    87.466690    -93.977043    -4.690470    -0.983456    -46.627613    3.722126    26.468708    -2.873752    -9.588243    1.488998    0.881600    6.926884    -27.108921    2.395586    -7.804660    0.312850    -4.294279    -53.459187    27.052561    -28.978210    0.783893    -0.521569    -70.063835    134.519547    -11.792411    24.080273    14.200064    0.827107    6.791361    34.852428    49.428135    32.921368    -3.037781    -1.799951    60.503662    -150.552673    -23.683657    9.305140    31.561405    -6.330595    9.428286    -19.951902    28.298683    18.298468    -13.701794    11.243961    7.171064    -10.504606    -0.287459    -6.188942    2.541633    27.125494    -14.542049    17.392498    -0.119087    -10.237124    
105.191933    88.030563    -93.829208    -4.123107    -0.681890    -46.793613    3.449325    25.728626    -3.278067    -10.281003    1.297727    1.222686    7.763540    -26.119997    2.917694    -7.744626    0.269125    -3.462329    -53.998280    27.561178    -28.956312    1.060458    -0.868580    -69.581505    133.636017    -12.298991    24.084215    13.982779    0.856511    7.365401    35.697872    48.998867    32.063309    -2.459099    -1.214734    60.170650    -150.408386    -24.608675    8.916986    30.646986    -6.422255    9.926384    -18.526375    27.856798    16.302509    -14.570973    10.642409    8.461759    -10.908623    -0.219329    -6.873158    2.311669    25.408190    -13.873933    17.570498    1.248692    -10.271489    
105.894562    88.677711    -93.969467    -2.637969    0.658575    -46.892109    3.783895    23.866377    -2.363858    -11.011744    0.524670    0.968621    7.835622    -24.919971    2.645814    -8.226711    0.264049    -3.482077    -54.618259    26.948122    -28.568806    0.584680    -0.198473    -69.985931    135.076813    -11.809383    23.596201    13.433518    0.821742    7.019072    36.112823    48.319252    31.731209    -1.928369    -0.848052    60.390282    -150.081924    -24.966866    8.627470    29.315714    -8.188416    7.465910    -18.057592    26.497168    17.902622    -13.136402    10.206598    8.139249    -10.878451    -2.556387    -7.700924    1.755389    25.115797    -13.569717    16.329372    1.523730    -10.023897    
106.132820    88.947975    -93.885246    -2.329274    0.872731    -47.149422    3.734632    23.326296    -2.059643    -10.289145    0.579790    0.867431    7.197583    -24.426222    2.368115    -8.118914    0.285228    -3.794329    -54.996117    26.895041    -28.080978    0.281288    0.012046    -70.002060    135.347565    -11.933484    23.220863    13.608937    0.802756    6.543507    36.598209    48.033321    31.271585    -1.617240    -0.731682    60.428879    -149.529816    -25.545008    8.553217    28.669804    -8.133060    7.166564    -17.310923    26.078018    17.068779    -13.260141    9.696402    8.619186    -10.905003    -2.667397    -7.751873    1.542102    24.355745    -13.634415    15.535708    1.884271    -9.835073    
106.115273    88.894112    -93.557831    -1.786462    0.584524    -47.961575    3.185298    23.052841    -0.905114    -10.965518    0.384023    0.943395    7.664537    -23.800083    2.526463    -8.388774    0.267917    -3.423833    -55.400585    26.841919    -27.708529    0.053489    0.131346    -70.197632    135.598602    -12.030016    22.754263    13.453380    0.812901    6.671847    37.109543    47.776981    30.638758    -1.188389    -0.458602    60.429985    -149.033325    -26.133270    8.484879    27.740314    -7.239913    8.999437    -16.009180    26.061926    13.944194    -13.574331    8.813001    9.418112    -11.612758    -2.309610    -7.075288    1.729225    23.251896    -13.972589    14.369749    2.081201    -9.710861    
106.323608    89.075165    -93.401062    -1.686528    0.671361    -48.385921    3.183733    22.769623    -0.581127    -10.333064    0.438273    0.861781    7.115036    -23.318069    2.292507    -8.302218    0.262567    -3.649386    -55.780689    26.745415    -27.155170    -0.243363    0.367620    -70.389183    136.062149    -12.071895    22.291042    13.646626    0.782169    6.285453    37.656094    47.486935    30.094528    -0.949635    -0.386977    60.527023    -148.239563    -26.763834    8.509766    27.080572    -6.761325    8.849822    -15.109245    25.657742    12.566585    -14.064415    8.188173    10.288652    -11.524766    -2.117500    -6.856113    1.536035    22.521276    -14.402768    12.974367    2.130119    -9.608806    
